<svg width="139" height="34" viewBox="0 0 139 34" fill="none" xmlns="http://www.w3.org/2000/svg">
<path d="M0.494 13V0.399999H5.948C7.076 0.399999 8.048 0.585999 8.864 0.957999C9.68 1.318 10.31 1.84 10.754 2.524C11.198 3.208 11.42 4.024 11.42 4.972C11.42 5.908 11.198 6.718 10.754 7.402C10.31 8.086 9.68 8.614 8.864 8.986C8.048 9.346 7.076 9.526 5.948 9.526H2.114L3.41 8.212V13H0.494ZM3.41 8.536L2.114 7.15H5.786C6.686 7.15 7.358 6.958 7.802 6.574C8.246 6.19 8.468 5.656 8.468 4.972C8.468 4.276 8.246 3.736 7.802 3.352C7.358 2.968 6.686 2.776 5.786 2.776H2.114L3.41 1.39V8.536ZM20.9818 13V0.399999H26.4358C27.5638 0.399999 28.5358 0.585999 29.3518 0.957999C30.1678 1.318 30.7978 1.84 31.2418 2.524C31.6858 3.208 31.9078 4.024 31.9078 4.972C31.9078 5.908 31.6858 6.718 31.2418 7.402C30.7978 8.074 30.1678 8.59 29.3518 8.95C28.5358 9.31 27.5638 9.49 26.4358 9.49H22.6018L23.8978 8.212V13H20.9818ZM28.9918 13L25.8418 8.428H28.9558L32.1418 13H28.9918ZM23.8978 8.536L22.6018 7.168H26.2738C27.1738 7.168 27.8458 6.976 28.2898 6.592C28.7338 6.196 28.9558 5.656 28.9558 4.972C28.9558 4.276 28.7338 3.736 28.2898 3.352C27.8458 2.968 27.1738 2.776 26.2738 2.776H22.6018L23.8978 1.39V8.536ZM47.8181 13.216C46.8221 13.216 45.8981 13.054 45.0461 12.73C44.2061 12.406 43.4741 11.95 42.8501 11.362C42.2381 10.774 41.7581 10.084 41.4101 9.292C41.0741 8.5 40.9061 7.636 40.9061 6.7C40.9061 5.764 41.0741 4.9 41.4101 4.108C41.7581 3.316 42.2441 2.626 42.8681 2.038C43.4921 1.45 44.2241 0.993999 45.0641 0.669999C45.9041 0.345999 46.8161 0.184 47.8001 0.184C48.7961 0.184 49.7081 0.345999 50.5361 0.669999C51.3761 0.993999 52.1021 1.45 52.7141 2.038C53.3381 2.626 53.8241 3.316 54.1721 4.108C54.5201 4.888 54.6941 5.752 54.6941 6.7C54.6941 7.636 54.5201 8.506 54.1721 9.31C53.8241 10.102 53.3381 10.792 52.7141 11.38C52.1021 11.956 51.3761 12.406 50.5361 12.73C49.7081 13.054 48.8021 13.216 47.8181 13.216ZM47.8001 10.732C48.3641 10.732 48.8801 10.636 49.3481 10.444C49.8281 10.252 50.2481 9.976 50.6081 9.616C50.9681 9.256 51.2441 8.83 51.4361 8.338C51.6401 7.846 51.7421 7.3 51.7421 6.7C51.7421 6.1 51.6401 5.554 51.4361 5.062C51.2441 4.57 50.9681 4.144 50.6081 3.784C50.2601 3.424 49.8461 3.148 49.3661 2.956C48.8861 2.764 48.3641 2.668 47.8001 2.668C47.2361 2.668 46.7141 2.764 46.2341 2.956C45.7661 3.148 45.3521 3.424 44.9921 3.784C44.6321 4.144 44.3501 4.57 44.1461 5.062C43.9541 5.554 43.8581 6.1 43.8581 6.7C43.8581 7.288 43.9541 7.834 44.1461 8.338C44.3501 8.83 44.6261 9.256 44.9741 9.616C45.3341 9.976 45.7541 10.252 46.2341 10.444C46.7141 10.636 47.2361 10.732 47.8001 10.732ZM64.3656 13V0.399999H70.0896C71.4576 0.399999 72.6636 0.663999 73.7076 1.192C74.7516 1.708 75.5676 2.434 76.1556 3.37C76.7436 4.306 77.0376 5.416 77.0376 6.7C77.0376 7.972 76.7436 9.082 76.1556 10.03C75.5676 10.966 74.7516 11.698 73.7076 12.226C72.6636 12.742 71.4576 13 70.0896 13H64.3656ZM67.2816 10.606H69.9456C70.7856 10.606 71.5116 10.45 72.1236 10.138C72.7476 9.814 73.2276 9.358 73.5636 8.77C73.9116 8.182 74.0856 7.492 74.0856 6.7C74.0856 5.896 73.9116 5.206 73.5636 4.63C73.2276 4.042 72.7476 3.592 72.1236 3.28C71.5116 2.956 70.7856 2.794 69.9456 2.794H67.2816V10.606ZM92.3147 13.216C90.5267 13.216 89.1287 12.718 88.1207 11.722C87.1127 10.726 86.6087 9.304 86.6087 7.456V0.399999H89.5247V7.348C89.5247 8.548 89.7707 9.412 90.2627 9.94C90.7547 10.468 91.4447 10.732 92.3327 10.732C93.2207 10.732 93.9107 10.468 94.4027 9.94C94.8947 9.412 95.1407 8.548 95.1407 7.348V0.399999H98.0207V7.456C98.0207 9.304 97.5167 10.726 96.5087 11.722C95.5007 12.718 94.1027 13.216 92.3147 13.216ZM114.412 13.216C113.44 13.216 112.534 13.06 111.694 12.748C110.866 12.424 110.146 11.968 109.534 11.38C108.922 10.792 108.442 10.102 108.094 9.31C107.758 8.518 107.59 7.648 107.59 6.7C107.59 5.752 107.758 4.882 108.094 4.09C108.442 3.298 108.922 2.608 109.534 2.02C110.158 1.432 110.884 0.981999 111.712 0.669999C112.54 0.345999 113.446 0.184 114.43 0.184C115.522 0.184 116.506 0.376 117.382 0.76C118.27 1.132 119.014 1.684 119.614 2.416L117.742 4.144C117.31 3.652 116.83 3.286 116.302 3.046C115.774 2.794 115.198 2.668 114.574 2.668C113.986 2.668 113.446 2.764 112.954 2.956C112.462 3.148 112.036 3.424 111.676 3.784C111.316 4.144 111.034 4.57 110.83 5.062C110.638 5.554 110.542 6.1 110.542 6.7C110.542 7.3 110.638 7.846 110.83 8.338C111.034 8.83 111.316 9.256 111.676 9.616C112.036 9.976 112.462 10.252 112.954 10.444C113.446 10.636 113.986 10.732 114.574 10.732C115.198 10.732 115.774 10.612 116.302 10.372C116.83 10.12 117.31 9.742 117.742 9.238L119.614 10.966C119.014 11.698 118.27 12.256 117.382 12.64C116.506 13.024 115.516 13.216 114.412 13.216ZM131.55 13V2.776H127.518V0.399999H138.498V2.776H134.466V13H131.55ZM0.494 33V20.4H2.906L8.27 29.292H6.992L12.266 20.4H14.66L14.696 33H11.96L11.942 24.594H12.446L8.234 31.668H6.92L2.618 24.594H3.23V33H0.494ZM16.0294 33L21.6454 20.4H24.5254L30.1594 33H27.0994L22.4914 21.876H23.6434L19.0174 33H16.0294ZM18.8374 30.3L19.6114 28.086H26.0914L26.8834 30.3H18.8374ZM31.4667 33V20.4H33.8787L41.3127 29.472H40.1427V20.4H43.0227V33H40.6287L33.1767 23.928H34.3467V33H31.4667ZM44.3478 33L49.9638 20.4H52.8438L58.4778 33H55.4178L50.8098 21.876H51.9618L47.3358 33H44.3478ZM47.1558 30.3L47.9298 28.086H54.4098L55.2018 30.3H47.1558ZM65.6932 33.216C64.6972 33.216 63.7792 33.06 62.9392 32.748C62.1112 32.424 61.3852 31.968 60.7612 31.38C60.1492 30.792 59.6692 30.102 59.3212 29.31C58.9852 28.518 58.8172 27.648 58.8172 26.7C58.8172 25.752 58.9852 24.882 59.3212 24.09C59.6692 23.298 60.1552 22.608 60.7792 22.02C61.4032 21.432 62.1352 20.982 62.9752 20.67C63.8152 20.346 64.7392 20.184 65.7472 20.184C66.8632 20.184 67.8652 20.37 68.7532 20.742C69.6532 21.114 70.4092 21.654 71.0212 22.362L69.1492 24.09C68.6932 23.61 68.1952 23.256 67.6552 23.028C67.1152 22.788 66.5272 22.668 65.8912 22.668C65.2792 22.668 64.7212 22.764 64.2172 22.956C63.7132 23.148 63.2752 23.424 62.9032 23.784C62.5432 24.144 62.2612 24.57 62.0572 25.062C61.8652 25.554 61.7692 26.1 61.7692 26.7C61.7692 27.288 61.8652 27.828 62.0572 28.32C62.2612 28.812 62.5432 29.244 62.9032 29.616C63.2752 29.976 63.7072 30.252 64.1992 30.444C64.7032 30.636 65.2552 30.732 65.8552 30.732C66.4312 30.732 66.9892 30.642 67.5292 30.462C68.0812 30.27 68.6152 29.952 69.1312 29.508L70.7872 31.614C70.1032 32.13 69.3052 32.526 68.3932 32.802C67.4932 33.078 66.5932 33.216 65.6932 33.216ZM68.1232 31.236V26.502H70.7872V31.614L68.1232 31.236ZM76.178 25.476H82.244V27.744H76.178V25.476ZM76.394 30.66H83.252V33H73.496V20.4H83.018V22.74H76.394V30.66ZM85.5721 33V20.4H87.9841L93.3481 29.292H92.0701L97.3441 20.4H99.7381L99.7741 33H97.0381L97.0201 24.594H97.5241L93.3121 31.668H91.9981L87.6961 24.594H88.3081V33H85.5721ZM105.446 25.476H111.512V27.744H105.446V25.476ZM105.662 30.66H112.52V33H102.764V20.4H112.286V22.74H105.662V30.66ZM114.84 33V20.4H117.252L124.686 29.472H123.516V20.4H126.396V33H124.002L116.55 23.928H117.72V33H114.84ZM131.987 33V22.776H127.955V20.4H138.935V22.776H134.903V33H131.987Z" fill="black"/>
</svg>
